<svg width="40" height="40" viewBox="0 0 40 40" fill="none" xmlns="http://www.w3.org/2000/svg">
<path d="M8.76909 2L8.66529 3.68304L6.70792 4.49015L5.07678 3.23077L3.23063 5.07692L4.4614 6.30769L3.84601 8.15385L1.68555 8.76923V11.2308L3.49986 11.5125L3.99986 13.5L3.23063 14.9231L5.07678 16.7692L6.70792 15.3981L8.15371 16.1538L8.76909 18H11.2306L11.846 16.1538L13.0768 15.5385L14.9229 16.7692L16.7691 14.9231L15.5383 13.2919L16.1537 11.5125L17.9999 11.2308V8.76923L16.4999 8.5L15.4999 6.5L16.7691 5.07692L14.9229 3.23077L13.0768 4.49015L12.6131 4.21687L11.3344 3.68304V2.97127L11.2306 2H8.76909Z" fill="#DFF93E"/>
<path fill-rule="evenodd" clip-rule="evenodd" d="M8.32201 1.30927C8.52001 1.11125 8.78856 1 9.06858 1H10.9314C11.2114 1 11.48 1.11125 11.678 1.30927C11.876 1.50728 11.9872 1.77584 11.9872 2.05584V2.95424C12.541 3.11058 13.0744 3.33195 13.5762 3.61372L14.213 2.97824C14.4109 2.78068 14.6792 2.66965 14.9588 2.66965C15.2385 2.66965 15.5068 2.78064 15.7047 2.97824L17.023 4.29666C17.2206 4.49463 17.3315 4.76289 17.3315 5.04256C17.3315 5.32222 17.2206 5.59049 17.023 5.78845L16.3868 6.42476C16.6684 6.92651 16.8897 7.45984 17.046 8.01362H17.9442C18.2242 8.01362 18.4928 8.12487 18.6908 8.32289C18.8888 8.5209 19 8.78946 19 9.06946V10.9325C19 11.2125 18.8888 11.4811 18.6908 11.6791C18.4928 11.8771 18.2242 11.9884 17.9442 11.9884H17.046C16.8896 12.5423 16.6682 13.0759 16.3864 13.5778L17.021 14.2145C17.2184 14.4124 17.3296 14.6808 17.3296 14.9604C17.3296 15.2401 17.2186 15.5083 17.021 15.7063L15.7028 17.0247C15.5048 17.2223 15.2366 17.3333 14.9569 17.3333C14.6772 17.3333 14.4089 17.2223 14.211 17.0247L13.5748 16.3885C13.0731 16.6701 12.5399 16.8914 11.9862 17.0477V17.9442C11.9862 18.2242 11.875 18.4927 11.677 18.6907C11.479 18.8887 11.2105 19 10.9304 19H9.06759C8.78756 19 8.51901 18.8887 8.32103 18.6907C8.12304 18.4927 8.01181 18.2242 8.01181 17.9442V17.0458C7.45813 16.8895 6.92489 16.6682 6.42322 16.3865L5.78705 17.0227C5.58911 17.2203 5.32085 17.3313 5.04116 17.3313C4.76146 17.3313 4.4932 17.2203 4.29527 17.0227L2.977 15.7043C2.77943 15.5064 2.66847 15.2381 2.66847 14.9584C2.66847 14.6788 2.77943 14.4105 2.977 14.2125L3.61324 13.5762C3.33158 13.0745 3.11029 12.5411 2.954 11.9874H2.05578C1.77575 11.9874 1.5072 11.8761 1.30921 11.6781C1.11122 11.4801 1 11.2115 1 10.9315V9.06847C1 8.78846 1.11122 8.51991 1.30921 8.3219C1.5072 8.12389 1.77575 8.01263 2.05578 8.01263H2.95499C3.11128 7.45886 3.33257 6.92552 3.61423 6.42377L2.97799 5.78746C2.78042 5.5895 2.66946 5.32125 2.66946 5.04157C2.66946 4.7619 2.78041 4.49363 2.97799 4.29567L4.29626 2.97725C4.4942 2.77965 4.76245 2.66867 5.04214 2.66867C5.32183 2.66867 5.59009 2.77965 5.78803 2.97725L6.42421 3.61351C6.92587 3.33184 7.45912 3.11054 8.0128 2.95424V2.05584C8.0128 1.77584 8.12402 1.50728 8.32201 1.30927ZM9.06858 2.01124C9.05679 2.01124 9.04546 2.01592 9.03711 2.02428C9.02875 2.03264 9.02404 2.04399 9.02404 2.05584V3.75332L8.62835 3.84145C7.91452 4.00045 7.23394 4.28292 6.61729 4.67614L6.27496 4.89443L5.07359 3.69291C5.06525 3.68463 5.05389 3.6799 5.04214 3.6799C5.03037 3.6799 5.01906 3.68457 5.01072 3.6929L3.69373 5.01003C3.68544 5.01838 3.68069 5.02977 3.68069 5.04157C3.68069 5.05338 3.68537 5.0647 3.69369 5.07306L4.89504 6.27455L4.67683 6.61682C4.28366 7.23354 4.00121 7.91422 3.84223 8.62815L3.75411 9.02387H2.05578C2.04399 9.02387 2.03266 9.02855 2.0243 9.03691C2.01594 9.04527 2.01124 9.05662 2.01124 9.06847V10.9315C2.01124 10.9434 2.01594 10.9547 2.0243 10.9631C2.03266 10.9714 2.04398 10.9761 2.05578 10.9761H3.75312L3.84124 11.3718C4.00022 12.0858 4.28267 12.7665 4.67585 13.3832L4.89405 13.7254L3.69275 14.9269C3.68448 14.9352 3.67971 14.9467 3.67971 14.9584C3.67971 14.9702 3.68436 14.9815 3.69264 14.9899L5.00971 16.3071C5.01805 16.3153 5.02946 16.3201 5.04116 16.3201C5.05285 16.3201 5.06407 16.3155 5.07241 16.3073L6.27398 15.1056L6.6163 15.3239C7.23295 15.7171 7.91353 15.9996 8.62736 16.1585L9.02305 16.2467V17.9442C9.02305 17.956 9.02776 17.9674 9.03612 17.9757C9.04448 17.9841 9.05581 17.9888 9.06759 17.9888H10.9304C10.9422 17.9888 10.9535 17.9841 10.9619 17.9757C10.9703 17.9674 10.975 17.956 10.975 17.9442V16.2487L11.3707 16.1605C12.0845 16.0015 12.7651 15.7191 13.3817 15.3258L13.724 15.1075L14.9254 16.3091C14.9338 16.3174 14.9451 16.3221 14.9569 16.3221C14.9686 16.3221 14.9799 16.3174 14.9883 16.3091L16.3053 14.9919C16.3135 14.9836 16.3183 14.9722 16.3183 14.9604C16.3183 14.9486 16.3136 14.9372 16.3053 14.9289L15.1063 13.7259L15.3242 13.3842C15.7173 12.7674 15.9998 12.0868 16.1588 11.3728L16.2469 10.9771H17.9442C17.956 10.9771 17.9673 10.9724 17.9757 10.9641C17.9841 10.9557 17.9888 10.9444 17.9888 10.9325V9.06946C17.9888 9.05761 17.9841 9.04626 17.9757 9.0379C17.9673 9.02954 17.956 9.02485 17.9442 9.02485H16.2469L16.1588 8.62914C15.9998 7.9152 15.7173 7.23453 15.3242 6.61781L15.1059 6.27554L16.3073 5.07409C16.3156 5.06573 16.3203 5.0544 16.3203 5.04256C16.3203 5.03071 16.3156 5.01938 16.3073 5.01102L14.9903 3.6939C14.9819 3.68564 14.9706 3.68089 14.9588 3.68089C14.9471 3.68089 14.9358 3.68556 14.9274 3.6939L13.7247 4.89419L13.3827 4.67614C12.7661 4.28292 12.0855 4.00045 11.3717 3.84145L10.976 3.75332V2.05584C10.976 2.04399 10.9713 2.03264 10.9629 2.02428C10.9545 2.01592 10.9432 2.01124 10.9314 2.01124H9.06858Z" fill="#333236"/>
<path d="M15 10C15 12.7614 12.7614 15 10 15C7.23858 15 5 12.7614 5 10C5 7.23858 7.23858 5 10 5C12.7614 5 15 7.23858 15 10Z" fill="white"/>
<path fill-rule="evenodd" clip-rule="evenodd" d="M10 14C12.2091 14 14 12.2091 14 10C14 7.79086 12.2091 6 10 6C7.79086 6 6 7.79086 6 10C6 12.2091 7.79086 14 10 14ZM10 15C12.7614 15 15 12.7614 15 10C15 7.23858 12.7614 5 10 5C7.23858 5 5 7.23858 5 10C5 12.7614 7.23858 15 10 15Z" fill="#333236"/>
<path fill-rule="evenodd" clip-rule="evenodd" d="M35.4141 20.5H21.6016V19.5H35.4141V20.5Z" fill="#BBBDC9"/>
<path fill-rule="evenodd" clip-rule="evenodd" d="M26.6969 9.76863L23.9337 12.5319H21.6016V11.5319H23.5195L25.9898 9.06152L26.6969 9.76863ZM31.5176 13.9792L27.6524 17.8444H21.6016V16.8444H27.2382L30.8105 13.2721L31.5176 13.9792ZM32.2184 24.2194H21.6016V23.2194H33.2184V28.0944H32.2184V24.2194ZM26.9453 28.4694H21.6016V27.4694H27.9453V33.2819H26.9453V28.4694Z" fill="#BBBDC9"/>
<path d="M21.5 7.15406V33.9999C21.5 35.0001 20 37.0002 16.5 36.5002C12.0728 35.8677 11.5 32.5 12 31.5C11 32.5 8 31.5 7 30C5.40058 27.6008 6.66682 25.9999 7.5 25.5C6.66667 25.6666 5 24.8001 5 22.0001C5 19.5958 6.5 18.4999 7.5 18.4999C6.5 17.9999 5.17872 15.7765 7 13.4999C9 10.9999 11.5001 11.6666 12.5 12.4999C11.5 10.9999 10.7809 8.36007 14.5 6.49987C17.5 4.99934 20 5.99989 21.5 7.15406Z" fill="#C47CFD"/>
<path fill-rule="evenodd" clip-rule="evenodd" d="M14.232 5.96341C17.4982 4.32973 20.2446 5.43094 21.8663 6.67868L22.1004 6.85882V34C22.1004 35.4918 20.1394 37.6262 16.4155 37.0942C14.0443 36.7554 12.627 35.6653 11.8896 34.449C11.5264 33.8499 11.3358 33.2319 11.2738 32.6815C11.2658 32.6105 11.2598 32.5396 11.256 32.4692C11.1606 32.4833 11.0649 32.4925 10.97 32.4976C10.4433 32.5258 9.87029 32.4318 9.32143 32.2602C8.24208 31.9229 7.10275 31.2353 6.50116 30.3329C5.62006 29.0112 5.48412 27.8303 5.76183 26.871C5.87456 26.4816 6.05134 26.1433 6.2572 25.8583C5.27391 25.3414 4.40039 24.0624 4.40039 22.0002C4.40039 20.0865 5.2802 18.8012 6.2984 18.2328C5.99569 17.8421 5.74727 17.355 5.61062 16.813C5.33703 15.7279 5.5041 14.4099 6.53187 13.1252C7.63452 11.7469 8.91806 11.1998 10.1004 11.1506C10.5089 11.1336 10.9005 11.1762 11.263 11.2609C11.1129 10.7303 11.0479 10.1496 11.1372 9.54712C11.3339 8.22043 12.2516 6.95394 14.232 5.96341ZM20.9004 7.4574C19.508 6.47746 17.353 5.74411 14.7688 7.03665C13.0301 7.90631 12.4478 8.88983 12.3243 9.72311C12.1947 10.5966 12.5417 12.3126 13 13L12.1163 12.961C11.7263 12.636 10.9959 12.3143 10.1504 12.3495C9.33276 12.3836 8.36626 12.7532 7.46891 13.8749C6.6754 14.8668 6.59247 15.7988 6.7742 16.5196C6.96649 17.2822 7.45003 17.8041 7.76872 17.9634L7.50039 19.1001C6.90731 19.1001 5.60039 19.8463 5.60039 22.0002C5.60039 24.583 7.06381 24.9755 7.38272 24.9117L8 25.5C7.6908 25.6855 7.08639 26.611 6.9145 27.2047C6.75065 27.7707 6.7813 28.5898 7.49962 29.6672C7.89803 30.2648 8.7587 30.8272 9.67936 31.1149C10.1305 31.2558 10.5574 31.318 10.9058 31.2994C11.261 31.2803 11.4694 31.1825 11.5761 31.0758L12.537 31.7684C12.4815 31.8794 12.4214 32.1494 12.4662 32.547C12.5093 32.9291 12.6449 33.3801 12.9158 33.8269C13.4466 34.7025 14.5293 35.6125 16.5852 35.9062C19.8613 36.3743 20.9004 34.5087 20.9004 34V7.4574Z" fill="#333236"/>
<path fill-rule="evenodd" clip-rule="evenodd" d="M12.2169 13.1436C11.669 12.2032 11.2799 11.0327 11.1064 10.0707L11.8937 9.92871C12.0533 10.8136 12.4142 11.8931 12.9081 12.741C13.155 13.1647 13.4252 13.5134 13.7049 13.7519C13.9837 13.9896 14.2492 14.0997 14.5001 14.0997V14.8997C14.001 14.8997 13.5582 14.6781 13.1858 14.3607C12.8145 14.044 12.4909 13.614 12.2169 13.1436Z" fill="#333236"/>
<path fill-rule="evenodd" clip-rule="evenodd" d="M19.1801 12.9678C18.2134 12.8945 17.2935 12.3231 16.9805 11.2421L17.7489 11.0195C17.9529 11.724 18.5447 12.1173 19.2406 12.1701C19.9427 12.2233 20.7101 11.9211 21.1832 11.2584L21.8343 11.7232C21.1868 12.6301 20.1406 13.0406 19.1801 12.9678Z" fill="#333236"/>
<path fill-rule="evenodd" clip-rule="evenodd" d="M17.4163 18.3164C17.0294 18.5336 16.6562 18.9359 16.371 19.6487C15.857 20.9337 15.1459 21.7537 14.1579 21.8361C13.2155 21.9147 12.2254 21.2915 11.2168 20.2829L11.7825 19.7172C12.7739 20.7086 13.5338 21.0853 14.0914 21.0389C14.6034 20.9962 15.1423 20.5662 15.6283 19.3516C15.966 18.5073 16.4459 17.9437 17.0248 17.6188C17.6012 17.2953 18.2324 17.233 18.8308 17.3106C20.0095 17.4635 21.1435 18.1679 21.76 18.6963L21.2393 19.3037C20.6891 18.832 19.696 18.2295 18.7279 18.104C18.2528 18.0423 17.8056 18.098 17.4163 18.3164Z" fill="#333236"/>
<path fill-rule="evenodd" clip-rule="evenodd" d="M19.3561 24.197C20.1979 24.0738 21.1496 24.3388 21.8856 25.0615L21.3251 25.6323C20.7691 25.0864 20.0682 24.9013 19.4719 24.9886C18.873 25.0762 18.4098 25.4283 18.2482 25.9406L18.2481 25.9409C18.0304 26.629 18.1673 27.1769 18.3338 27.8265L18.337 27.8388C18.5015 28.4801 18.6923 29.2242 18.3773 30.1309L17.6216 29.8683C17.8519 29.2055 17.7249 28.6726 17.5589 28.0252C17.556 28.0139 17.5531 28.0026 17.5502 27.9913C17.3874 27.3569 17.1964 26.6129 17.4853 25.6997C17.757 24.8386 18.5171 24.3198 19.3561 24.197Z" fill="#333236"/>
<path fill-rule="evenodd" clip-rule="evenodd" d="M9.78878 25.0112C8.72839 24.9354 7.61174 25.4697 6.83958 26.7118L6.16016 26.2895C7.06786 24.8293 8.45121 24.1135 9.84586 24.2133C11.2375 24.3128 12.5556 25.2177 13.3576 26.8219L12.6421 27.1797C11.9441 25.7836 10.8522 25.0873 9.78878 25.0112Z" fill="#333236"/>
<path fill-rule="evenodd" clip-rule="evenodd" d="M27.4062 9.4375C28.0276 9.4375 28.5312 8.93382 28.5312 8.3125C28.5312 7.69118 28.0276 7.1875 27.4062 7.1875C26.7849 7.1875 26.2812 7.69118 26.2812 8.3125C26.2812 8.93382 26.7849 9.4375 27.4062 9.4375ZM27.4062 10.4375C28.5799 10.4375 29.5312 9.48611 29.5312 8.3125C29.5312 7.13889 28.5799 6.1875 27.4062 6.1875C26.2326 6.1875 25.2812 7.13889 25.2812 8.3125C25.2812 9.48611 26.2326 10.4375 27.4062 10.4375Z" fill="#BBBDC9"/>
<path d="M14.6562 27.9688C14.6562 28.849 13.9427 29.5625 13.0625 29.5625C12.1823 29.5625 11.4688 28.849 11.4688 27.9688C11.4688 27.0885 12.1823 26.375 13.0625 26.375C13.9427 26.375 14.6562 27.0885 14.6562 27.9688Z" fill="white"/>
<path fill-rule="evenodd" clip-rule="evenodd" d="M13.0625 28.7625C13.5009 28.7625 13.8563 28.4071 13.8563 27.9688C13.8563 27.5304 13.5009 27.175 13.0625 27.175C12.6241 27.175 12.2688 27.5304 12.2688 27.9688C12.2688 28.4071 12.6241 28.7625 13.0625 28.7625ZM13.0625 29.5625C13.9427 29.5625 14.6562 28.849 14.6562 27.9688C14.6562 27.0885 13.9427 26.375 13.0625 26.375C12.1823 26.375 11.4688 27.0885 11.4688 27.9688C11.4688 28.849 12.1823 29.5625 13.0625 29.5625Z" fill="#333236"/>
<path d="M12.5312 19.4688C12.5312 20.349 11.8177 21.0625 10.9375 21.0625C10.0573 21.0625 9.34375 20.349 9.34375 19.4688C9.34375 18.5885 10.0573 17.875 10.9375 17.875C11.8177 17.875 12.5312 18.5885 12.5312 19.4688Z" fill="white"/>
<path fill-rule="evenodd" clip-rule="evenodd" d="M10.9375 20.2625C11.3759 20.2625 11.7313 19.9071 11.7313 19.4688C11.7313 19.0304 11.3759 18.675 10.9375 18.675C10.4991 18.675 10.1438 19.0304 10.1438 19.4688C10.1438 19.9071 10.4991 20.2625 10.9375 20.2625ZM10.9375 21.0625C11.8177 21.0625 12.5312 20.349 12.5312 19.4688C12.5312 18.5885 11.8177 17.875 10.9375 17.875C10.0573 17.875 9.34375 18.5885 9.34375 19.4688C9.34375 20.349 10.0573 21.0625 10.9375 21.0625Z" fill="#333236"/>
<path d="M16.7812 15.2188C16.7812 16.099 16.0677 16.8125 15.1875 16.8125C14.3073 16.8125 13.5938 16.099 13.5938 15.2188C13.5938 14.3385 14.3073 13.625 15.1875 13.625C16.0677 13.625 16.7812 14.3385 16.7812 15.2188Z" fill="white"/>
<path fill-rule="evenodd" clip-rule="evenodd" d="M15.1875 16.0125C15.6259 16.0125 15.9813 15.6571 15.9813 15.2188C15.9813 14.7804 15.6259 14.425 15.1875 14.425C14.7491 14.425 14.3938 14.7804 14.3938 15.2188C14.3938 15.6571 14.7491 16.0125 15.1875 16.0125ZM15.1875 16.8125C16.0677 16.8125 16.7812 16.099 16.7812 15.2188C16.7812 14.3385 16.0677 13.625 15.1875 13.625C14.3073 13.625 13.5938 14.3385 13.5938 15.2188C13.5938 16.099 14.3073 16.8125 15.1875 16.8125Z" fill="#333236"/>
<path d="M18.9062 9.90625C18.9062 10.7865 18.1927 11.5 17.3125 11.5C16.4323 11.5 15.7188 10.7865 15.7188 9.90625C15.7188 9.02605 16.4323 8.3125 17.3125 8.3125C18.1927 8.3125 18.9062 9.02605 18.9062 9.90625Z" fill="white"/>
<path fill-rule="evenodd" clip-rule="evenodd" d="M17.3125 10.7C17.7509 10.7 18.1063 10.3446 18.1063 9.90625C18.1063 9.46787 17.7509 9.1125 17.3125 9.1125C16.8741 9.1125 16.5188 9.46787 16.5188 9.90625C16.5188 10.3446 16.8741 10.7 17.3125 10.7ZM17.3125 11.5C18.1927 11.5 18.9062 10.7865 18.9062 9.90625C18.9062 9.02605 18.1927 8.3125 17.3125 8.3125C16.4323 8.3125 15.7188 9.02605 15.7188 9.90625C15.7188 10.7865 16.4323 11.5 17.3125 11.5Z" fill="#333236"/>
<path d="M19.9688 31.1562C19.9688 32.0365 19.2552 32.75 18.375 32.75C17.4948 32.75 16.7812 32.0365 16.7812 31.1562C16.7812 30.276 17.4948 29.5625 18.375 29.5625C19.2552 29.5625 19.9688 30.276 19.9688 31.1562Z" fill="white"/>
<path fill-rule="evenodd" clip-rule="evenodd" d="M18.375 31.95C18.8134 31.95 19.1688 31.5946 19.1688 31.1562C19.1688 30.7179 18.8134 30.3625 18.375 30.3625C17.9366 30.3625 17.5813 30.7179 17.5813 31.1562C17.5813 31.5946 17.9366 31.95 18.375 31.95ZM18.375 32.75C19.2552 32.75 19.9688 32.0365 19.9688 31.1562C19.9688 30.276 19.2552 29.5625 18.375 29.5625C17.4948 29.5625 16.7812 30.276 16.7812 31.1562C16.7812 32.0365 17.4948 32.75 18.375 32.75Z" fill="#333236"/>
<path fill-rule="evenodd" clip-rule="evenodd" d="M27.4062 36C28.0276 36 28.5312 35.4963 28.5312 34.875C28.5312 34.2537 28.0276 33.75 27.4062 33.75C26.7849 33.75 26.2812 34.2537 26.2812 34.875C26.2812 35.4963 26.7849 36 27.4062 36ZM27.4062 37C28.5799 37 29.5312 36.0486 29.5312 34.875C29.5312 33.7014 28.5799 32.75 27.4062 32.75C26.2326 32.75 25.2812 33.7014 25.2812 34.875C25.2812 36.0486 26.2326 37 27.4062 37Z" fill="#BBBDC9"/>
<path fill-rule="evenodd" clip-rule="evenodd" d="M32.7188 13.6875C33.3401 13.6875 33.8438 13.1838 33.8438 12.5625C33.8438 11.9412 33.3401 11.4375 32.7188 11.4375C32.0974 11.4375 31.5938 11.9412 31.5938 12.5625C31.5938 13.1838 32.0974 13.6875 32.7188 13.6875ZM32.7188 14.6875C33.8924 14.6875 34.8438 13.7361 34.8438 12.5625C34.8438 11.3889 33.8924 10.4375 32.7188 10.4375C31.5451 10.4375 30.5938 11.3889 30.5938 12.5625C30.5938 13.7361 31.5451 14.6875 32.7188 14.6875Z" fill="#BBBDC9"/>
<path fill-rule="evenodd" clip-rule="evenodd" d="M36.9688 21.125C37.5901 21.125 38.0938 20.6213 38.0938 20C38.0938 19.3787 37.5901 18.875 36.9688 18.875C36.3474 18.875 35.8438 19.3787 35.8438 20C35.8438 20.6213 36.3474 21.125 36.9688 21.125ZM36.9688 22.125C38.1424 22.125 39.0938 21.1736 39.0938 20C39.0938 18.8264 38.1424 17.875 36.9688 17.875C35.7951 17.875 34.8438 18.8264 34.8438 20C34.8438 21.1736 35.7951 22.125 36.9688 22.125Z" fill="#BBBDC9"/>
<path fill-rule="evenodd" clip-rule="evenodd" d="M32.7188 30.8125C33.3401 30.8125 33.8438 30.3088 33.8438 29.6875C33.8438 29.0662 33.3401 28.5625 32.7188 28.5625C32.0974 28.5625 31.5938 29.0662 31.5938 29.6875C31.5938 30.3088 32.0974 30.8125 32.7188 30.8125ZM32.7188 31.8125C33.8924 31.8125 34.8438 30.8611 34.8438 29.6875C34.8438 28.5139 33.8924 27.5625 32.7188 27.5625C31.5451 27.5625 30.5938 28.5139 30.5938 29.6875C30.5938 30.8611 31.5451 31.8125 32.7188 31.8125Z" fill="#BBBDC9"/>
</svg>
