<svg width="40" height="40" viewBox="0 0 40 40" fill="none" xmlns="http://www.w3.org/2000/svg">
<path d="M15.7016 19.4324H23.8104C25.0311 19.4324 26.2019 18.9474 27.0651 18.0842C27.9283 17.221 28.4132 16.0502 28.4132 14.8295V6.69788C28.4131 5.47722 27.9281 4.30661 27.0649 3.44353C26.2017 2.58045 25.031 2.09558 23.8104 2.09558H15.7016C14.4809 2.09558 13.3102 2.58045 12.447 3.44353C11.5838 4.30661 11.0988 5.47722 11.0987 6.69788V11.0985H6.69858C5.47792 11.0985 4.30725 11.5834 3.44406 12.4465C2.58087 13.3096 2.09586 14.4802 2.0957 15.7008V23.8102C2.0957 25.031 2.58065 26.2018 3.44386 27.065C4.30706 27.9282 5.47782 28.4131 6.69858 28.4131H11.0987V24.0347C11.0988 22.814 11.5838 21.6434 12.447 20.7803C13.3102 19.9172 14.4809 19.4324 15.7016 19.4324Z" fill="#4BC9F0"/>
<path d="M32.8123 11.0992H28.4122V14.8302C28.4122 16.0509 27.9273 17.2217 27.0641 18.0849C26.2009 18.9481 25.0301 19.4331 23.8093 19.4331H15.7005C14.4799 19.4331 13.3092 19.9179 12.446 20.781C11.5828 21.6441 11.0978 22.8147 11.0977 24.0353V32.8139C11.0977 34.0347 11.5826 35.2054 12.4458 36.0686C13.309 36.9318 14.4798 37.4168 15.7005 37.4168H23.8093C25.0301 37.4168 26.2009 36.9318 27.0641 36.0686C27.9273 35.2054 28.4122 34.0347 28.4122 32.8139V28.4138H32.8123C34.0331 28.4138 35.2038 27.9289 36.067 27.0657C36.9302 26.2025 37.4152 25.0317 37.4152 23.8109V15.7015C37.415 14.4809 36.93 13.3103 36.0668 12.4472C35.2036 11.5841 34.033 11.0992 32.8123 11.0992Z" fill="#FFE141"/>
<path d="M14.8257 8.45471C15.5519 8.45471 16.1406 7.86599 16.1406 7.13977C16.1406 6.41355 15.5519 5.82483 14.8257 5.82483C14.0995 5.82483 13.5107 6.41355 13.5107 7.13977C13.5107 7.86599 14.0995 8.45471 14.8257 8.45471Z" fill="white"/>
<path d="M24.688 33.4404C25.4142 33.4404 26.0029 32.8517 26.0029 32.1255C26.0029 31.3993 25.4142 30.8105 24.688 30.8105C23.9618 30.8105 23.373 31.3993 23.373 32.1255C23.373 32.8517 23.9618 33.4404 24.688 33.4404Z" fill="white"/>
<path d="M32.8138 10.5141H28.9981V6.69841C28.9965 5.32313 28.4495 4.00461 27.4771 3.03214C26.5046 2.05967 25.1861 1.51266 23.8108 1.51111H15.702C14.3267 1.51266 13.0082 2.05967 12.0357 3.03214C11.0632 4.00461 10.5162 5.32313 10.5147 6.69841V10.5141H6.69902C5.32384 10.5156 4.00541 11.0626 3.03296 12.0349C2.0605 13.0072 1.51342 14.3256 1.51172 15.7008V23.8102C1.51342 25.1854 2.0605 26.5037 3.03296 27.4761C4.00541 28.4484 5.32384 28.9954 6.69902 28.9969H10.5147V32.8132C10.5162 34.1884 11.0632 35.5069 12.0357 36.4794C13.0082 37.4519 14.3267 37.9989 15.702 38.0005H23.8108C25.1861 37.9989 26.5046 37.4519 27.4771 36.4794C28.4495 35.5069 28.9965 34.1884 28.9981 32.8132V28.9969H32.8138C34.1889 28.9954 35.5072 28.4484 36.4796 27.476C37.452 26.5037 37.9989 25.1853 38.0005 23.8102V15.7008C37.9989 14.3257 37.452 13.0073 36.4796 12.0349C35.5072 11.0626 34.1889 10.5156 32.8138 10.5141ZM6.69902 27.8281C5.63369 27.827 4.6123 27.4033 3.85894 26.6501C3.10558 25.8968 2.68179 24.8755 2.68056 23.8102V15.7008C2.68179 14.6355 3.10558 13.6141 3.85894 12.8609C4.6123 12.1076 5.63369 11.684 6.69902 11.6829H18.5744C18.7294 11.6829 18.878 11.6213 18.9876 11.5117C19.0972 11.4021 19.1588 11.2535 19.1588 11.0985C19.1588 10.9435 19.0972 10.7948 18.9876 10.6853C18.878 10.5757 18.7294 10.5141 18.5744 10.5141H11.6835V6.69841C11.6848 5.63302 12.1085 4.61163 12.8619 3.85829C13.6152 3.10495 14.6366 2.68118 15.702 2.67995H23.8108C24.8762 2.68118 25.8976 3.10495 26.6509 3.85829C27.4042 4.61163 27.828 5.63302 27.8293 6.69841V14.8294C27.828 15.8948 27.4042 16.9162 26.6509 17.6695C25.8976 18.4229 24.8762 18.8466 23.8108 18.8479H15.702C14.3268 18.8494 13.0084 19.3964 12.0359 20.3687C11.0635 21.3411 10.5164 22.6594 10.5147 24.0346V27.8281H6.69902ZM36.8316 23.8102C36.8304 24.8754 36.4067 25.8967 35.6535 26.6499C34.9002 27.4031 33.879 27.8268 32.8138 27.8281H20.9384C20.7834 27.8281 20.6347 27.8896 20.5251 27.9992C20.4155 28.1088 20.354 28.2575 20.354 28.4125C20.354 28.5675 20.4155 28.7161 20.5251 28.8257C20.6347 28.9353 20.7834 28.9969 20.9384 28.9969H27.8293V32.8132C27.828 33.8785 27.4042 34.8999 26.6509 35.6533C25.8976 36.4066 24.8762 36.8304 23.8108 36.8316H15.702C14.6366 36.8304 13.6152 36.4066 12.8619 35.6533C12.1085 34.8999 11.6848 33.8785 11.6835 32.8132V28.4131V24.0346C11.6848 22.9693 12.1085 21.9479 12.8619 21.1947C13.6153 20.4414 14.6367 20.0178 15.702 20.0167H23.8108C25.1861 20.0152 26.5046 19.4682 27.4771 18.4957C28.4495 17.5232 28.9965 16.2047 28.9981 14.8294V11.6829H32.8138C33.879 11.6842 34.9002 12.1079 35.6535 12.8611C36.4067 13.6143 36.8304 14.6356 36.8316 15.7008V23.8102Z" fill="#333236"/>
</svg>
