<svg xmlns="http://www.w3.org/2000/svg" width="20" height="21" viewBox="0 0 20 21">
    <g fill="none" fill-rule="evenodd">
        <g fill="#FFF">
            <g>
                <path d="M10.742 3c4.373 0 7.918 2.793 7.918 6.239 0 3.445-3.545 6.238-7.918 6.238-.48 0-.95-.033-1.406-.098-.457.322-3.097 2.175-3.346 2.21 0 0-.102.04-.19-.012-.086-.051-.07-.185-.07-.185.012-.085.166-.639.338-1.243l.116-.406.351-1.219c-2.23-1.103-3.711-3.058-3.711-5.285C2.824 5.793 6.369 3 10.742 3zM7.534 7.375h-2.34c-.247 0-.448.2-.448.447 0 .246.201.447.448.447h.713v2.711c0 .24.205.436.457.436s.457-.195.457-.436V8.27h.713c.247 0 .448-.201.448-.447 0-.247-.201-.447-.448-.447zm6.507 0c-.251 0-.456.204-.456.456v3.123c0 .252.205.456.456.456.252 0 .457-.204.457-.456v-.996l.159-.159 1.071 1.419c.088.115.22.181.365.181.1 0 .195-.032.275-.092.097-.073.16-.18.177-.3.017-.122-.014-.242-.087-.34L15.333 9.18l1.041-1.04c.072-.071.108-.17.101-.278-.007-.106-.054-.21-.134-.29-.086-.085-.2-.134-.315-.134-.098 0-.188.036-.253.102l-1.275 1.273v-.98c0-.253-.205-.457-.457-.457zm-4.974 0c-.298.006-.532.232-.609.45L7.366 10.7c-.14.43-.018.59.108.648.09.042.19.063.29.063.19 0 .336-.077.38-.2l.227-.593h1.393l.226.592c.044.124.19.201.38.201.1 0 .2-.021.29-.063.126-.057.247-.217.108-.649L9.676 7.826c-.077-.22-.31-.445-.61-.451zm2.465 0c-.257 0-.466.204-.466.456v3.1c0 .231.196.419.437.419h1.466c.242 0 .438-.188.438-.419 0-.23-.196-.418-.438-.418H12V7.83c0-.252-.21-.456-.467-.456zM9.067 8.513l.456 1.295h-.912l.456-1.295z" transform="translate(-1390 -47) translate(1290 39.5) translate(99.5 8)"/>
            </g>
        </g>
    </g>
</svg>
