<svg width="40" height="40" viewBox="0 0 40 40" fill="none" xmlns="http://www.w3.org/2000/svg">
<path d="M3.4502 6C3.4502 4.34315 4.79334 3 6.4502 3H34.5502C36.207 3 37.5502 4.34315 37.5502 6V25.3C37.5502 26.9569 36.207 28.3 34.5502 28.3H6.4502C4.79334 28.3 3.4502 26.9569 3.4502 25.3V6Z" fill="#DFF93E"/>
<path fill-rule="evenodd" clip-rule="evenodd" d="M34.5502 4.5H6.4502C5.62177 4.5 4.9502 5.17157 4.9502 6V25.3C4.9502 26.1284 5.62177 26.8 6.4502 26.8H34.5502C35.3786 26.8 36.0502 26.1284 36.0502 25.3V6C36.0502 5.17157 35.3786 4.5 34.5502 4.5ZM6.4502 3C4.79334 3 3.4502 4.34315 3.4502 6V25.3C3.4502 26.9569 4.79334 28.3 6.4502 28.3H34.5502C36.207 28.3 37.5502 26.9569 37.5502 25.3V6C37.5502 4.34315 36.207 3 34.5502 3H6.4502Z" fill="#333236"/>
<path fill-rule="evenodd" clip-rule="evenodd" d="M21.0498 27C21.464 27 21.7998 27.3358 21.7998 27.75V36C21.7998 36.4142 21.464 36.75 21.0498 36.75C20.6356 36.75 20.2998 36.4142 20.2998 36V27.75C20.2998 27.3358 20.6356 27 21.0498 27Z" fill="#333236"/>
<path fill-rule="evenodd" clip-rule="evenodd" d="M21.5972 27.237C21.8805 27.5392 21.8651 28.0139 21.563 28.2972L12.763 36.5472C12.4608 36.8305 11.9861 36.8151 11.7028 36.513C11.4196 36.2108 11.4349 35.7361 11.737 35.4529L20.537 27.2028C20.8392 26.9196 21.3139 26.9349 21.5972 27.237Z" fill="#333236"/>
<path fill-rule="evenodd" clip-rule="evenodd" d="M20.5027 27.237C20.786 26.9349 21.2606 26.9196 21.5628 27.2028L30.3628 35.4529C30.6649 35.7361 30.6803 36.2108 30.397 36.513C30.1137 36.8151 29.639 36.8305 29.3369 36.5472L20.5369 28.2972C20.2347 28.0139 20.2194 27.5392 20.5027 27.237Z" fill="#333236"/>
<path fill-rule="evenodd" clip-rule="evenodd" d="M30.5261 6.71195C30.685 7.00278 30.578 7.36729 30.2871 7.52612L22.7656 11.6337C22.097 11.9989 21.2636 11.842 20.7736 11.2586L18.4362 8.47599C18.3193 8.33681 18.1232 8.29396 17.9589 8.37168L11.2561 11.5419C10.9565 11.6836 10.5988 11.5556 10.4572 11.2561C10.3155 10.9565 10.4435 10.5988 10.743 10.4571L17.4458 7.28689C18.1031 6.97601 18.8874 7.14742 19.355 7.70416L21.6924 10.4868C21.8149 10.6326 22.0233 10.6719 22.1904 10.5806L29.712 6.47294C30.0028 6.31411 30.3673 6.42112 30.5261 6.71195Z" fill="#333236"/>
<path d="M11 17.75C11 17.3358 11.3358 17 11.75 17C12.1642 17 12.5 17.3358 12.5 17.75V23.25C12.5 23.6642 12.1642 24 11.75 24C11.3358 24 11 23.6642 11 23.25V17.75Z" fill="#333236"/>
<path d="M14.5 12.75C14.5 12.3358 14.8358 12 15.25 12C15.6642 12 16 12.3358 16 12.75V23.25C16 23.6642 15.6642 24 15.25 24C14.8358 24 14.5 23.6642 14.5 23.25V12.75Z" fill="#333236"/>
<path d="M18 14.75C18 14.3358 18.3358 14 18.75 14C19.1642 14 19.5 14.3358 19.5 14.75V23.25C19.5 23.6642 19.1642 24 18.75 24C18.3358 24 18 23.6642 18 23.25V14.75Z" fill="#333236"/>
<path d="M21.5 15.75C21.5 15.3358 21.8358 15 22.25 15C22.6642 15 23 15.3358 23 15.75V23.25C23 23.6642 22.6642 24 22.25 24C21.8358 24 21.5 23.6642 21.5 23.25V15.75Z" fill="#333236"/>
<path d="M25 17.75C25 17.3358 25.3358 17 25.75 17C26.1642 17 26.5 17.3358 26.5 17.75V23.25C26.5 23.6642 26.1642 24 25.75 24C25.3358 24 25 23.6642 25 23.25V17.75Z" fill="#333236"/>
<path d="M28.5 19.75C28.5 19.3358 28.8358 19 29.25 19C29.6642 19 30 19.3358 30 19.75V23.25C30 23.6642 29.6642 24 29.25 24C28.8358 24 28.5 23.6642 28.5 23.25V19.75Z" fill="#333236"/>
</svg>
