<svg width="40" height="40" viewBox="0 0 40 40" fill="none" xmlns="http://www.w3.org/2000/svg">
<path d="M31.5575 32.8537C31.5188 33.286 31.2057 33.6441 30.7823 33.74L20.5609 36.0545C20.4155 36.0874 20.2646 36.0874 20.1192 36.0545L9.89786 33.74C9.47449 33.6441 9.16132 33.286 9.12268 32.8537L6.77749 6.6116C6.7252 6.0265 7.18609 5.52258 7.77352 5.52258H32.9066C33.4941 5.52258 33.955 6.0265 33.9027 6.6116L31.5575 32.8537Z" fill="#F99D28"/>
<path fill-rule="evenodd" clip-rule="evenodd" d="M31.0472 34.9104L20.8258 37.2249C20.506 37.2973 20.174 37.2973 19.8541 37.2249L9.63274 34.9104C8.70132 34.6995 8.01235 33.9117 7.92734 32.9605L5.58215 6.71846C5.46711 5.43126 6.48109 4.32263 7.77342 4.32263H32.9065C34.1989 4.32263 35.2128 5.43126 35.0978 6.71846L32.7526 32.9605C32.6676 33.9117 31.9786 34.6995 31.0472 34.9104ZM30.7822 33.74C31.2056 33.6441 31.5187 33.2861 31.5574 32.8537L33.9026 6.61164C33.9549 6.02655 33.494 5.52263 32.9065 5.52263H7.77342C7.18599 5.52263 6.7251 6.02655 6.77739 6.61164L9.12258 32.8537C9.16121 33.2861 9.47439 33.6441 9.89776 33.74L20.1191 36.0545C20.2645 36.0874 20.4154 36.0874 20.5608 36.0545L30.7822 33.74Z" fill="#333236"/>
<path d="M20.5439 36.1045L30.7575 33.8128C31.1816 33.7177 31.4956 33.3595 31.5346 32.9267L33.902 6.61218C33.9546 6.02689 33.4936 5.52258 32.906 5.52258H20.5439V36.1045Z" fill="#FFCA3E"/>
<path d="M23.1282 31.7584C22.5021 31.9016 21.9053 31.4259 21.9053 30.7836V29.627C21.9053 29.1723 22.212 28.7748 22.6519 28.6596L24.4636 28.1851C24.8659 28.0797 25.161 27.7363 25.2047 27.3227L25.5508 24.0433C25.6153 23.433 25.1198 22.9092 24.5068 22.9396L23.122 23.0083C22.5447 23.037 22.0634 22.5717 22.0725 21.9937L22.2423 11.287C22.2509 10.741 22.696 10.3029 23.2421 10.3029H29.3693C29.9561 10.3029 30.4168 10.8058 30.3655 11.3903L30.2455 12.7571C30.2002 13.2735 29.7677 13.6696 29.2494 13.6696H26.5642C26.0189 13.6696 25.5741 14.1066 25.5644 14.6518L25.5079 17.829C25.4975 18.4159 25.9924 18.8855 26.578 18.8443L28.4282 18.7141C29.044 18.6708 29.5515 19.1902 29.4941 19.8048L28.5581 29.8116C28.5179 30.2415 28.2063 30.5971 27.7854 30.6933L23.1282 31.7584Z" fill="white"/>
<path fill-rule="evenodd" clip-rule="evenodd" d="M23.2417 10.7028C22.9141 10.7028 22.647 10.9657 22.6418 11.2933L22.4721 22C22.4666 22.3468 22.7554 22.626 23.1017 22.6088L24.4866 22.5401C25.3448 22.4975 26.0384 23.2308 25.9482 24.0853L25.6021 27.3647C25.541 27.9437 25.1278 28.4245 24.5645 28.572L22.7529 29.0465C22.4889 29.1157 22.3049 29.3541 22.3049 29.627V30.7836C22.3049 31.1689 22.663 31.4544 23.0387 31.3685L27.6958 30.3034C27.9484 30.2456 28.1353 30.0323 28.1595 29.7743L29.0954 19.7675C29.1299 19.3988 28.8253 19.0871 28.4559 19.1131L26.6056 19.2433C25.7859 19.301 25.093 18.6436 25.1076 17.8219L25.1641 14.6447C25.1776 13.8813 25.8003 13.2696 26.5638 13.2696H29.249C29.56 13.2696 29.8195 13.0319 29.8467 12.7221L29.9667 11.3553C29.9974 11.0046 29.721 10.7028 29.369 10.7028H23.2417ZM21.8419 11.2806C21.854 10.5162 22.4772 9.90283 23.2417 9.90283H29.369C30.1905 9.90283 30.8354 10.6069 30.7636 11.4253L30.6436 12.792C30.5801 13.515 29.9747 14.0696 29.249 14.0696H26.5638C26.2366 14.0696 25.9697 14.3318 25.9639 14.6589L25.9075 17.8361C25.9012 18.1883 26.1982 18.47 26.5495 18.4453L28.3997 18.3151C29.2618 18.2544 29.9724 18.9816 29.8919 19.842L28.956 29.8488C28.8997 30.4507 28.4635 30.9485 27.8742 31.0832L23.217 32.1483C22.3404 32.3488 21.5049 31.6828 21.5049 30.7836V29.627C21.5049 28.9904 21.9344 28.4339 22.5502 28.2726L24.3618 27.7981C24.6032 27.7349 24.7803 27.5289 24.8065 27.2807L25.1527 24.0013C25.1913 23.6351 24.894 23.3208 24.5262 23.3391L23.1414 23.4078C22.3332 23.4479 21.6594 22.7965 21.6722 21.9873L21.8419 11.2806Z" fill="#333236"/>
<path d="M16.2597 10.3029C15.7074 10.3029 15.2597 10.7506 15.2597 11.3029V26.8683C15.2597 27.3281 14.8215 27.6615 14.3784 27.5388L14.1329 27.4708C13.9766 27.4275 13.8684 27.2852 13.8684 27.123C13.8684 26.9635 13.7636 26.8229 13.6108 26.7772L12.466 26.4353C11.7892 26.2331 11.1217 26.7775 11.1837 27.4812L11.3924 29.8515C11.4306 30.285 11.7447 30.644 12.1693 30.7394L17.413 31.918C18.0381 32.0585 18.6322 31.583 18.6322 30.9423V11.3029C18.6322 10.7506 18.1845 10.3029 17.6323 10.3029H16.2597Z" fill="#F7F7F7"/>
<path fill-rule="evenodd" clip-rule="evenodd" d="M16.2604 10.7028C15.929 10.7028 15.6604 10.9715 15.6604 11.3028V26.8683C15.6604 27.5925 14.9702 28.1175 14.2723 27.9242L14.0268 27.8563C13.7067 27.7676 13.4822 27.482 13.4696 27.1523L12.3522 26.8185C11.9461 26.6972 11.5456 27.0238 11.5828 27.4461L11.7915 29.8164C11.8144 30.0765 12.0029 30.2919 12.2576 30.3491L17.5013 31.5277C17.8764 31.612 18.2329 31.3267 18.2329 30.9423V11.3028C18.2329 10.9715 17.9643 10.7028 17.6329 10.7028H16.2604ZM14.8604 11.3028C14.8604 10.5296 15.4872 9.90283 16.2604 9.90283H17.6329C18.4061 9.90283 19.0329 10.5296 19.0329 11.3028V30.9423C19.0329 31.8393 18.2011 32.5049 17.3259 32.3082L12.0822 31.1297C11.4878 30.9961 11.048 30.4934 10.9946 29.8865L10.7859 27.5162C10.6991 26.531 11.6335 25.7689 12.5812 26.052L13.7259 26.3939C14.0386 26.4873 14.2558 26.7692 14.2684 27.0931L14.4858 27.1532C14.6741 27.2054 14.8604 27.0637 14.8604 26.8683V11.3028Z" fill="#333236"/>
</svg>
