<svg width="40" height="40" viewBox="0 0 40 40" fill="none" xmlns="http://www.w3.org/2000/svg">
<path fill-rule="evenodd" clip-rule="evenodd" d="M37.7422 36.0001H2L2.25769 11.0001H38L37.7422 36.0001Z" fill="#2DD9CA"/>
<path fill-rule="evenodd" clip-rule="evenodd" d="M37.7422 11.0001H2L2.5 4.00012H37.3357L37.7422 11.0001Z" fill="#DFEFF1"/>
<path fill-rule="evenodd" clip-rule="evenodd" d="M18.7289 28.1946C18.6494 28.1946 18.5686 28.1805 18.49 28.1503C18.1439 28.0183 17.9706 27.6307 18.1027 27.2846L21.5455 18.2658C21.6775 17.9198 22.0652 17.7462 22.4109 17.8785C22.7569 18.0106 22.9303 18.3982 22.7982 18.7443L19.3554 27.763C19.2534 28.0304 18.9989 28.1946 18.7289 28.1946M15.7545 26.2493C15.6401 26.2493 15.5242 26.22 15.4181 26.1583L10.5032 23.2994C10.2891 23.1748 10.1611 22.9423 10.1704 22.6947C10.1796 22.4471 10.3247 22.2247 10.5474 22.1165L15.7103 19.6081C16.0432 19.4461 16.4445 19.5851 16.6062 19.9183C16.7681 20.2515 16.6292 20.6527 16.2961 20.8144L12.2654 22.7728L16.0923 24.9989C16.4123 25.1852 16.5209 25.5955 16.3347 25.9157C16.2103 26.1298 15.9855 26.2493 15.7546 26.2493M24.0574 26.2494C23.8217 26.2494 23.5931 26.1248 23.4706 25.9041C23.2909 25.5803 23.4076 25.1721 23.7314 24.9922L27.7777 22.7455L23.9727 20.809C23.6427 20.641 23.5113 20.2372 23.6792 19.9072C23.8471 19.577 24.2508 19.4458 24.5808 19.6136L29.5096 22.122C29.7305 22.2344 29.8714 22.4597 29.8759 22.7076C29.8803 22.9555 29.7478 23.1857 29.531 23.306L24.3823 26.1649C24.2791 26.2221 24.1675 26.2493 24.0574 26.2494Z" fill="#333236"/>
<path fill-rule="evenodd" clip-rule="evenodd" d="M4.94034 4.34141C3.58875 4.34141 2.56948 5.33682 2.56948 6.65669V33.2935C2.56948 34.5702 3.52806 35.6087 4.70641 35.6087H35.2644C36.4426 35.6087 37.4013 34.5702 37.4013 33.2935V6.65669C37.4013 5.33155 36.3966 4.34148 35.4982 4.34148H4.94034V4.34141ZM35.2644 36.9501H4.70641C2.78862 36.95 1.22852 35.3097 1.22852 33.2935V6.65669C1.22852 4.57219 2.82428 3.00012 4.94034 3.00012H35.4982C37.2263 3.00012 38.7422 4.70884 38.7422 6.65662V33.2934C38.7422 35.3096 37.1821 36.9499 35.2644 36.9499V36.9501Z" fill="#333236"/>
<path fill-rule="evenodd" clip-rule="evenodd" d="M1.56738 11.1718H38.7195V9.8306H1.56738V11.1718ZM12.4976 7.72776H4.68162C4.28954 7.72776 3.9717 7.40983 3.9717 7.01768C3.9717 6.62545 4.28954 6.3076 4.68169 6.3076H12.4976C12.8897 6.3076 13.2076 6.62545 13.2076 7.0176C13.2076 7.40983 12.8897 7.72776 12.4976 7.72776ZM25.6783 7.72776H24.2377C23.8457 7.72776 23.5278 7.40983 23.5278 7.01768C23.5278 6.62545 23.8457 6.3076 24.2378 6.3076H25.6783C26.0704 6.3076 26.3883 6.62545 26.3883 7.0176C26.3883 7.40983 26.0704 7.72776 25.6783 7.72776ZM30.0654 7.69241H28.5805C28.1886 7.69241 27.8707 7.37457 27.8707 6.98242C27.8707 6.59019 28.1886 6.27234 28.5805 6.27234H30.0654C30.4575 6.27234 30.7753 6.59019 30.7753 6.98234C30.7753 7.37457 30.4575 7.69241 30.0654 7.69241ZM34.4679 7.69241H32.9832C32.5912 7.69241 32.2732 7.37457 32.2732 6.98242C32.2732 6.59019 32.5912 6.27234 32.9832 6.27234H34.4679C34.8601 6.27234 35.1779 6.59019 35.1779 6.98234C35.1779 7.37457 34.8601 7.69241 34.4679 7.69241Z" fill="#333236"/>
</svg>
