<svg xmlns="http://www.w3.org/2000/svg" width="20" height="21" viewBox="0 0 20 21">
    <g fill="none" fill-rule="evenodd">
        <g fill="#FFF">
            <g>
                <g>
                    <g>
                        <path d="M5.954 10.31c-.765-.114-1.48-.43-2.054-.926l-.08-.073c-.052-.049-.104-.1-.154-.152-.05-.051-.098-.105-.145-.16-.046-.053-.092-.106-.135-.163-.533-.685-.825-1.521-.825-2.404 0-.91.307-1.77.87-2.466l.034-.04c.077-.093.157-.183.243-.269.176-.175.367-.33.568-.467.058-.039.117-.078.177-.113.024-.015.048-.03.072-.043.437-.247.922-.411 1.43-.487.337-.051.635-.23.839-.506.203-.275.287-.613.237-.952C6.98.751 6.8.452 6.525.25c-.258-.19-.57-.274-.887-.242V.005c-.01 0-.018.003-.028.004l-.037.004c-.114.017-.226.037-.337.06-1.258.243-2.416.848-3.34 1.772-2.524 2.525-2.528 6.63-.012 9.16l.014.014.002.002.002.002c1.021 1.019 2.325 1.654 3.736 1.836v-.008c.316.031.629-.053.887-.243.275-.203.455-.502.506-.84.05-.339-.034-.677-.237-.952-.204-.275-.502-.455-.84-.506M10.04 3.963c1.03 0 1.867-.814 1.867-1.814 0-1.03-.838-1.866-1.867-1.866-1 0-1.814.837-1.814 1.866 0 1 .814 1.814 1.814 1.814M11.826 9.117c-.171-.597-.648-1.308-1.943-1.308-1 0-1.814.813-1.814 1.813 0 .936.708 1.712 1.628 1.805v2.22l.284-.177c1.478-.926 2.205-3.1 1.845-4.353" transform="translate(-1482 -47) translate(1290 39.5) translate(191.5 8) translate(4 3.5)"/>
                    </g>
                </g>
            </g>
        </g>
    </g>
</svg>
