<svg xmlns="http://www.w3.org/2000/svg" width="20" height="21" viewBox="0 0 20 21">
    <g fill="none" fill-rule="evenodd">
        <g fill="#FFF">
            <g>
                <path d="M8.969 12.559V8.004l3.876 2.277-3.876 2.278m8.992-3.91c-.006-.177-.016-.354-.03-.531-.057-.75-.14-1.61-.636-2.21-.424-.514-1.082-.63-1.706-.701-.79-.09-1.583-.143-2.378-.174-1.609-.061-3.22-.025-4.829.01-.827.019-1.654.037-2.478.103-1.012.08-2.054.229-2.525 1.24-.423.908-.37 2.06-.376 3.038-.005.876-.008 1.752.027 2.627.046 1.136.113 2.616 1.34 3.114.654.266 1.444.325 2.143.37.742.049 1.484.043 2.227.054 1.556.023 3.112-.03 4.668-.061 1.08-.021 2.19-.034 3.224-.386.893-.305 1.126-1.273 1.247-2.112.12-.834.089-1.68.088-2.52-.001-.62.015-1.24-.006-1.86" transform="translate(-1436 -47) translate(1290 39.5) translate(145.5 7.5)"/>
            </g>
        </g>
    </g>
</svg>
