<svg xmlns="http://www.w3.org/2000/svg" width="20" height="21" viewBox="0 0 20 21">
    <g fill="none" fill-rule="evenodd">
        <g fill="#FFF">
            <g>
                <path d="M14.897 3H4.853C3.83 3 3 3.83 3 4.853v10.044c0 1.023.83 1.853 1.853 1.853h4.954l.008-4.914H8.54c-.166 0-.301-.134-.302-.3l-.006-1.583c0-.167.135-.303.301-.303h1.275V8.12c0-1.776 1.084-2.743 2.669-2.743h1.3c.166 0 .3.135.3.301v1.336c0 .166-.134.3-.3.3l-.798.001c-.862 0-1.028.41-1.028 1.01V9.65h1.893c.18 0 .32.158.299.337l-.188 1.584c-.018.151-.146.266-.299.266h-1.697l-.008 4.913h2.947c1.023 0 1.853-.83 1.853-1.853V4.853C16.75 3.83 15.92 3 14.897 3" transform="translate(-1344 -47) translate(1290 39.5) translate(54 8)"/>
            </g>
        </g>
    </g>
</svg>
