<svg xmlns="http://www.w3.org/2000/svg" width="20" height="21" viewBox="0 0 20 21">
    <g fill="none" fill-rule="evenodd">
        <g fill="#FFF">
            <g>
                <g>
                    <path d="M16.048 12.55c0 1.763-1.435 3.198-3.198 3.198H7.368c-1.763 0-3.198-1.435-3.198-3.198V7.068c0-1.763 1.435-3.198 3.198-3.198h5.482c1.763 0 3.198 1.435 3.198 3.198v5.482zM12.85 2.5H7.368C4.846 2.5 2.8 4.546 2.8 7.068v5.482c0 2.523 2.046 4.568 4.568 4.568h5.482c2.523 0 4.568-2.045 4.568-4.568V7.068c0-2.522-2.045-4.568-4.568-4.568z" transform="translate(-1298 -47) translate(1290 39.5) translate(8 8)"/>
                    <path d="M10.11 12.14c-1.286 0-2.332-1.046-2.332-2.33 0-1.287 1.046-2.332 2.331-2.332S12.44 8.523 12.44 9.81c0 1.285-1.046 2.331-2.33 2.331m0-6.06c-2.06 0-3.73 1.67-3.73 3.73 0 2.059 1.67 3.729 3.73 3.729 2.059 0 3.729-1.67 3.729-3.73s-1.67-3.73-3.73-3.73M13.868 5.364c.379 0 .687.307.687.687 0 .379-.308.687-.687.687-.38 0-.687-.308-.687-.687 0-.38.307-.687.687-.687" transform="translate(-1298 -47) translate(1290 39.5) translate(8 8)"/>
                </g>
            </g>
        </g>
    </g>
</svg>
