<svg width="40" height="40" viewBox="0 0 40 40" fill="none" xmlns="http://www.w3.org/2000/svg">
<path d="M34.7375 24.125H5.98746L2.66871 36.2938C2.6177 36.4794 2.61025 36.6742 2.64693 36.8632C2.68361 37.0522 2.76344 37.2301 2.88018 37.3831C2.99693 37.5362 3.14745 37.6602 3.32 37.7455C3.49255 37.8308 3.68247 37.8751 3.87496 37.875H36.85C37.0425 37.8751 37.2324 37.8308 37.4049 37.7455C37.5775 37.6602 37.728 37.5362 37.8447 37.3831C37.9615 37.2301 38.0413 37.0522 38.078 36.8632C38.1147 36.6742 38.1072 36.4794 38.0562 36.2938L34.7375 24.125ZM14.7375 35.375L15.3625 32.875H25.3625L25.9875 35.375H14.7375Z" fill="#C47CFD"/>
<path d="M29.1123 10.375C29.1123 8.64442 28.5991 6.95269 27.6377 5.51376C26.6762 4.07483 25.3096 2.95332 23.7108 2.29106C22.1119 1.62879 20.3526 1.45551 18.6553 1.79313C16.9579 2.13075 15.3988 2.96411 14.1751 4.18782C12.9514 5.41153 12.1181 6.97063 11.7804 8.66796C11.4428 10.3653 11.6161 12.1246 12.2784 13.7235C12.9406 15.3223 14.0621 16.6889 15.5011 17.6504C16.94 18.6118 18.6317 19.125 20.3623 19.125C21.5137 19.1333 22.6552 18.9127 23.7206 18.4759C24.786 18.0391 25.7539 17.3949 26.568 16.5807C27.3822 15.7665 28.0264 14.7986 28.4632 13.7333C28.9 12.6679 29.1206 11.5264 29.1123 10.375Z" fill="#C47CFD"/>
<path d="M38.6558 36.1313L35.3621 24.0438V6.62503C35.3606 6.12821 35.1626 5.65215 34.8113 5.30085C34.46 4.94954 33.9839 4.75152 33.4871 4.75003H27.8433C26.974 3.58606 25.8451 2.64099 24.5463 1.98999C23.2476 1.33898 21.8149 1 20.3621 1C18.9093 1 17.4766 1.33898 16.1778 1.98999C14.8791 2.64099 13.7502 3.58606 12.8808 4.75003H7.23708C6.74026 4.75152 6.26421 4.94954 5.9129 5.30085C5.56159 5.65215 5.36357 6.12821 5.36208 6.62503V24.0438L2.06833 36.1313C1.99099 36.4093 1.97912 36.7015 2.03365 36.9849C2.08818 37.2683 2.20762 37.5352 2.38261 37.7647C2.5576 37.9942 2.78338 38.18 3.04224 38.3076C3.30109 38.4351 3.58599 38.501 3.87458 38.5H36.8496C37.1382 38.501 37.4231 38.4351 37.6819 38.3076C37.9408 38.18 38.1666 37.9942 38.3416 37.7647C38.5165 37.5352 38.636 37.2683 38.6905 36.9849C38.745 36.7015 38.7332 36.4093 38.6558 36.1313ZM20.3621 2.25003C21.9691 2.25003 23.5399 2.72655 24.8761 3.61934C26.2122 4.51213 27.2536 5.78108 27.8686 7.26573C28.4836 8.75038 28.6445 10.384 28.331 11.9601C28.0175 13.5362 27.2436 14.984 26.1073 16.1203C24.971 17.2566 23.5233 18.0304 21.9472 18.3439C20.3711 18.6574 18.7374 18.4965 17.2528 17.8816C15.7681 17.2666 14.4992 16.2252 13.6064 14.889C12.7136 13.5529 12.2371 11.982 12.2371 10.375C12.2391 8.22076 13.0957 6.15529 14.619 4.63198C16.1423 3.10868 18.2078 2.25202 20.3621 2.25003ZM6.61208 6.62503C6.61208 6.45927 6.67793 6.3003 6.79514 6.18309C6.91235 6.06588 7.07132 6.00003 7.23708 6.00003H12.0746C11.3191 7.4287 10.9457 9.02841 10.9907 10.6439C11.0357 12.2594 11.4976 13.8359 12.3316 15.2202C13.1655 16.6046 14.3431 17.7499 15.7502 18.5449C17.1573 19.3399 18.7459 19.7577 20.3621 19.7577C21.9782 19.7577 23.5669 19.3399 24.974 18.5449C26.381 17.7499 27.5587 16.6046 28.3926 15.2202C29.2265 13.8359 29.6884 12.2594 29.7334 10.6439C29.7785 9.02841 29.4051 7.4287 28.6496 6.00003H33.4871C33.6528 6.00003 33.8118 6.06588 33.929 6.18309C34.0462 6.3003 34.1121 6.45927 34.1121 6.62503V23.5H6.61208V6.62503ZM37.3496 37.0063C37.2911 37.0831 37.2153 37.1452 37.1285 37.1875C37.0417 37.2298 36.9462 37.2512 36.8496 37.25H3.87458C3.778 37.2512 3.68247 37.2298 3.59565 37.1875C3.50882 37.1452 3.43312 37.0831 3.37458 37.0063C3.31616 36.9287 3.27622 36.8389 3.25781 36.7436C3.2394 36.6483 3.243 36.55 3.26833 36.4563L6.46208 24.75H34.2621L37.4558 36.4563C37.4812 36.55 37.4848 36.6483 37.4664 36.7436C37.4479 36.8389 37.408 36.9287 37.3496 37.0063Z" fill="#333236"/>
<path d="M25.9684 32.7237C25.9346 32.5885 25.8566 32.4684 25.7468 32.3825C25.6369 32.2967 25.5015 32.25 25.3621 32.25H15.3621C15.2227 32.25 15.0873 32.2967 14.9775 32.3825C14.8676 32.4684 14.7896 32.5885 14.7559 32.7237L14.1309 35.2237C14.1079 35.3159 14.1062 35.412 14.1259 35.5049C14.1457 35.5977 14.1863 35.6849 14.2447 35.7597C14.3032 35.8345 14.3779 35.895 14.4632 35.9367C14.5485 35.9783 14.6422 36 14.7371 36H25.9871C26.0821 36 26.1758 35.9783 26.2611 35.9367C26.3464 35.895 26.4211 35.8345 26.4795 35.7597C26.538 35.6849 26.5786 35.5977 26.5983 35.5049C26.618 35.412 26.6164 35.3159 26.5934 35.2237L25.9684 32.7237ZM15.5378 34.75L15.8503 33.5H24.874L25.1865 34.75H15.5378Z" fill="#333236"/>
<path d="M17.2373 21H23.4873V22.25H17.2373V21Z" fill="#333236"/>
<path d="M7.8623 26H10.3623V27.25H7.8623V26Z" fill="#333236"/>
<path d="M11.6123 26H14.1123V27.25H11.6123V26Z" fill="#333236"/>
<path d="M15.3623 26H17.8623V27.25H15.3623V26Z" fill="#333236"/>
<path d="M22.8623 26H25.3623V27.25H22.8623V26Z" fill="#333236"/>
<path d="M26.6123 26H29.1123V27.25H26.6123V26Z" fill="#333236"/>
<path d="M30.3623 26H32.8623V27.25H30.3623V26Z" fill="#333236"/>
<path d="M19.1123 26H21.6123V27.25H19.1123V26Z" fill="#333236"/>
<path d="M7.8623 28.5H10.3623V29.75H7.8623V28.5Z" fill="#333236"/>
<path d="M11.6123 28.5H14.1123V29.75H11.6123V28.5Z" fill="#333236"/>
<path d="M15.3623 28.5H17.8623V29.75H15.3623V28.5Z" fill="#333236"/>
<path d="M22.8623 28.5H25.3623V29.75H22.8623V28.5Z" fill="#333236"/>
<path d="M26.6123 28.5H29.1123V29.75H26.6123V28.5Z" fill="#333236"/>
<path d="M30.3623 28.5H32.8623V29.75H30.3623V28.5Z" fill="#333236"/>
<path d="M19.1123 28.5H21.6123V29.75H19.1123V28.5Z" fill="#333236"/>
<path d="M13.7655 10.895L17.5155 13.395L18.2092 12.355L15.2374 10.375L18.2074 8.39498L17.5136 7.35498L13.7636 9.85498C13.678 9.91206 13.6078 9.98938 13.5593 10.0801C13.5107 10.1708 13.4854 10.2721 13.4854 10.375C13.4854 10.4779 13.5107 10.5792 13.5593 10.6699C13.6078 10.7606 13.678 10.8379 13.7636 10.895H13.7655Z" fill="#333236"/>
<path d="M23.2094 13.395L26.9594 10.895C27.045 10.8379 27.1152 10.7606 27.1637 10.6699C27.2122 10.5792 27.2376 10.4779 27.2376 10.375C27.2376 10.2721 27.2122 10.1708 27.1637 10.0801C27.1152 9.98938 27.045 9.91206 26.9594 9.85498L23.2094 7.35498L22.5156 8.39498L25.4875 10.375L22.5175 12.355L23.2094 13.395Z" fill="#333236"/>
<path d="M19.123 13.3663L20.3723 7.11368L21.5986 7.35868L20.3493 13.6113L19.123 13.3663Z" fill="#333236"/>
</svg>
